<?xml version="1.0" encoding="iso-8859-1"?>
<!-- Generator: Adobe Illustrator 19.0.0, SVG Export Plug-In . SVG Version: 6.00 Build 0)  -->
<svg version="1.1" id="Capa_1" xmlns="http://www.w3.org/2000/svg" xmlns:xlink="http://www.w3.org/1999/xlink" x="0px" y="0px"
	 viewBox="0 0 52 52" style="enable-background:new 0 0 52 52;" xml:space="preserve">
<g>
	<g>
		<path d="M46,0H6C2.691,0,0,2.691,0,6v40c0,3.309,2.691,6,6,6h40c3.309,0,6-2.691,6-6V6C52,2.691,49.309,0,46,0z M50,46
			c0,2.206-1.794,4-4,4H6c-2.206,0-4-1.794-4-4V6c0-2.206,1.794-4,4-4h40c2.206,0,4,1.794,4,4V46z"/>
		<path d="M32.527,18.15c-0.294-0.183-0.662-0.201-0.971-0.047l-14,6.928C17.216,25.201,17,25.548,17,25.928
			s0.216,0.728,0.557,0.896l14,6.928c0.14,0.069,0.292,0.104,0.443,0.104c0.184,0,0.366-0.05,0.527-0.15
			C32.821,33.523,33,33.202,33,32.856V19C33,18.654,32.821,18.333,32.527,18.15z M31,31.246l-10.745-5.317L31,20.611V31.246z"/>
	</g>
</g>
<g>
</g>
<g>
</g>
<g>
</g>
<g>
</g>
<g>
</g>
<g>
</g>
<g>
</g>
<g>
</g>
<g>
</g>
<g>
</g>
<g>
</g>
<g>
</g>
<g>
</g>
<g>
</g>
<g>
</g>
</svg>
