<?xml version="1.0" encoding="iso-8859-1"?>
<!-- Generator: Adobe Illustrator 19.0.0, SVG Export Plug-In . SVG Version: 6.00 Build 0)  -->
<svg version="1.1" id="Capa_1" xmlns="http://www.w3.org/2000/svg" xmlns:xlink="http://www.w3.org/1999/xlink" x="0px" y="0px"
	 viewBox="0 0 52 52" style="enable-background:new 0 0 52 52;" xml:space="preserve">
<g>
	<g>
		<path d="M46,0H6C2.691,0,0,2.691,0,6v40c0,3.309,2.691,6,6,6h40c3.309,0,6-2.691,6-6V6C52,2.691,49.309,0,46,0z M50,46
			c0,2.206-1.794,4-4,4H6c-2.206,0-4-1.794-4-4V6c0-2.206,1.794-4,4-4h40c2.206,0,4,1.794,4,4V46z"/>
		<path d="M26.824,17.557c-0.338-0.682-1.455-0.682-1.793,0l-6.928,14c-0.153,0.31-0.136,0.677,0.047,0.971
			C18.333,32.821,18.654,33,19,33h13.856c0.346,0,0.667-0.179,0.85-0.473s0.2-0.661,0.047-0.971L26.824,17.557z M20.61,31
			l5.317-10.746L31.246,31H20.61z"/>
	</g>
</g>
<g>
</g>
<g>
</g>
<g>
</g>
<g>
</g>
<g>
</g>
<g>
</g>
<g>
</g>
<g>
</g>
<g>
</g>
<g>
</g>
<g>
</g>
<g>
</g>
<g>
</g>
<g>
</g>
<g>
</g>
</svg>
